<svg id="Layer_1" data-name="Layer 1" xmlns="http://www.w3.org/2000/svg" viewBox="0 0 42.71 60.05"><defs><style>.cls-1{fill:#fff;}</style></defs><title>alu-pattern-2</title><path class="cls-1" d="M14.86,5.19l1.29-3.05h0l6.13.08L21,5.28h0Zm1.32-2.95L15,5.11l6,.09,1.22-2.87Z" transform="translate(9.99 2.12)"/><path class="cls-1" d="M17.8,12.53l-3-1.28.09-6.13,3,1.27Zm-2.93-1.35,2.84,1.2.07-6L14.92,5.19Z" transform="translate(9.99 2.12)"/><path class="cls-1" d="M14.83,5.3,11.81,4l.11-6.14,3,1.28ZM11.88,4,14.75,5.2l.09-6L12-2Z" transform="translate(9.99 2.12)"/><path class="cls-1" d="M7.4,8.14l1.28-3h0l6.13.09-1.28,3h0ZM8.73,5.19,7.51,8.05l6,.11,1.22-2.87Z" transform="translate(9.99 2.12)"/><path class="cls-1" d="M25.29,9.62l1.3-3h0l6.13.08-1.3,3.06h0Zm1.36-2.94L25.43,9.55l6,.1,1.22-2.87Z" transform="translate(9.99 2.12)"/><path class="cls-1" d="M28.24,17l-3-1.28.09-6.13,3,1.28ZM25.29,15.6l2.89,1.23.07-6L25.39,9.64Z" transform="translate(9.99 2.12)"/><path class="cls-1" d="M25.26,9.73l-3-1.28.09-6.13,3,1.28ZM22.32,8.41l2.87,1.22.09-6L22.39,2.42Z" transform="translate(9.99 2.12)"/><path class="cls-1" d="M17.84,12.57l1.28-3h0l6.14.1-1.28,3h0Zm1.32-3L18,12.48l6,.1,1.21-2.86Z" transform="translate(9.99 2.12)"/><path class="cls-1" d="M10.51,15.42l1.28-3h0l6.14.07-1.29,3h0Zm1.32-2.94-1.22,2.88,6,.09,1.23-2.88Z" transform="translate(9.99 2.12)"/><path class="cls-1" d="M13.45,22.77l-3-1.28.1-6.14,3,1.28ZM10.5,21.45l2.85,1.21.09-6-2.87-1.21Z" transform="translate(9.99 2.12)"/><path class="cls-1" d="M10.48,15.55l-3-1.28.12-6.19,3,1.29ZM7.53,14.22l2.87,1.22.1-6L7.62,8.21Z" transform="translate(9.99 2.12)"/><path class="cls-1" d="M3.05,18.38l1.27-3h0l6.13.09-1.28,3h0Zm1.33-3L3.15,18.34l6,.08,1.22-2.86Z" transform="translate(9.99 2.12)"/><path class="cls-1" d="M21,19.85l1.28-3h0l6.14.07-1.29,3h0Zm1.35-2.92L21.08,19.8l6,.09L28.3,17Z" transform="translate(9.99 2.12)"/><path class="cls-1" d="M23.89,27.21l-3-1.29.1-6.14,3,1.28Zm-3-1.33,2.88,1.22.09-6-2.85-1.21Z" transform="translate(9.99 2.12)"/><path class="cls-1" d="M20.91,20l-3-1.28L18,12.57l3,1.28ZM18,18.65l2.87,1.22.1-6-2.88-1.22Z" transform="translate(9.99 2.12)"/><path class="cls-1" d="M13.49,22.81l1.27-3h0l6.14.1-1.28,3h0Zm1.33-3-1.24,2.92,6,.08L20.81,20Z" transform="translate(9.99 2.12)"/><path class="cls-1" d="M6.16,25.67l1.28-3h0l6.13.08-1.28,3h0Zm1.33-3L6.27,25.59l6,.09,1.22-2.87Z" transform="translate(9.99 2.12)"/><path class="cls-1" d="M9.1,33l-3-1.28.09-6.13,3,1.28ZM6.16,31.68,9,32.89l.09-6L6.22,25.67Z" transform="translate(9.99 2.12)"/><path class="cls-1" d="M6.13,25.78l-3-1.28.11-6.12,3,1.28ZM3.19,24.46l2.87,1.22.09-6L3.27,18.45Z" transform="translate(9.99 2.12)"/><path class="cls-1" d="M-1.3,28.62,0,25.6H0l6.13.09-1.28,3h0ZM0,25.67l-1.22,2.88,6,.09L6,25.77Z" transform="translate(9.99 2.12)"/><path class="cls-1" d="M16.6,30.1l1.28-3h0l6.14.12-1.28,3h0ZM18,27.16,16.73,30l6,.09L24,27.26Z" transform="translate(9.99 2.12)"/><path class="cls-1" d="M19.54,37.44l-3-1.28.1-6.13,3,1.28Zm-2.95-1.33,2.88,1.22.08-6L16.7,30.12Z" transform="translate(9.99 2.12)"/><path class="cls-1" d="M16.56,30.21l-3-1.28.09-6.13,3,1.28Zm-2.94-1.32,2.88,1.22.09-6-2.88-1.23Z" transform="translate(9.99 2.12)"/><path class="cls-1" d="M9.14,33.05l1.28-3h0l6.14.1-1.27,3h0Zm1.33-2.95L9.25,33l6,.09,1.22-2.87Z" transform="translate(9.99 2.12)"/><path class="cls-1" d="M1.81,35.9l1.28-3h0l6.13.1L8,36H8ZM3.14,33,1.92,35.84l6,.09,1.22-2.88Z" transform="translate(9.99 2.12)"/><path class="cls-1" d="M4.76,43.26,1.74,42l.09-6.13,3,1.28ZM1.81,41.93l2.84,1.21.09-6L1.87,35.92Z" transform="translate(9.99 2.12)"/><path class="cls-1" d="M1.78,36l-3-1.28.12-6.17,3,1.28Zm-2.95-1.33L1.7,35.93l.11-6-2.89-1.22Z" transform="translate(9.99 2.12)"/><path class="cls-1" d="M-5.64,38.86l1.29-3h0l6.13.09L.49,39h0Zm1.33-3-1.23,2.88,6,.09L1.7,36Z" transform="translate(9.99 2.12)"/><path class="cls-1" d="M12.25,40.33l1.28-3h0l6.13.1-1.28,3h0Zm1.35-2.92-1.22,2.87,6,.09,1.22-2.88Z" transform="translate(9.99 2.12)"/><path class="cls-1" d="M15.19,47.69l-3-1.28.1-6.14,3,1.28Zm-2.95-1.33,2.88,1.22.08-6-2.85-1.21Z" transform="translate(9.99 2.12)"/><path class="cls-1" d="M12.21,40.47l-3-1.28L9.3,33l3,1.28ZM9.27,39.14l2.87,1.22.1-6L9.36,33.13Z" transform="translate(9.99 2.12)"/><path class="cls-1" d="M4.79,43.29l1.3-3h0l6.14.09-1.29,3.05h0Zm1.33-2.95L4.9,43.22l6,.09,1.22-2.88Z" transform="translate(9.99 2.12)"/><path class="cls-1" d="M-2.54,46.16l1.28-3h0l6.14.08-1.28,3h0Zm1.33-2.95-1.22,2.87,6,.09,1.22-2.88Z" transform="translate(9.99 2.12)"/><path class="cls-1" d="M.41,53.49l-3-1.28.09-6.13,3,1.28Zm-2.95-1.33L.31,53.37l.07-6-2.86-1.21Z" transform="translate(9.99 2.12)"/><path class="cls-1" d="M-2.56,46.27l-3-1.29.11-6.14,3,1.28ZM-5.49,44.9l2.87,1.22.08-6-2.89-1.23Z" transform="translate(9.99 2.12)"/><path class="cls-1" d="M-10,49.1l1.28-3h0l6.14.06-1.27,3h0Zm1.33-3L-9.89,49l6,.09,1.2-2.83Z" transform="translate(9.99 2.12)"/><path class="cls-1" d="M7.9,50.59l1.28-3h0l6.14.08-1.29,3h0Zm1.36-3L8,50.52l6,.09,1.22-2.87Z" transform="translate(9.99 2.12)"/><path class="cls-1" d="M10.85,57.92l-3-1.28.09-6.13,3,1.28Zm-3-1.33,2.88,1.23.08-6L8,50.63Z" transform="translate(9.99 2.12)"/><path class="cls-1" d="M7.87,50.69l-3-1.28L5,43.28l3,1.29ZM5,49.33l2.87,1.22.09-6L5,43.33Z" transform="translate(9.99 2.12)"/><path class="cls-1" d="M.45,53.53l1.28-3h0l6.15.07-1.28,3h0Zm1.32-3L.55,53.46l6,.09,1.2-2.82Z" transform="translate(9.99 2.12)"/></svg>